<svg width="49" height="29" viewBox="0 0 49 29" fill="none" xmlns="http://www.w3.org/2000/svg">
<g clip-path="url(#clip0_272:1840)">
<path d="M16.6436 28.6865C16.4881 28.6865 16.3325 28.6081 16.2547 28.5297L13.7658 26.1784L11.8214 27.9811C11.3547 28.373 10.6547 28.373 10.1881 27.9027L5.91029 23.5135L1.01029 28.373C0.776959 28.6081 0.38807 28.6081 0.154736 28.373C-0.078597 28.1378 -0.078597 27.7459 0.154736 27.5108L5.05474 22.6513C5.5214 22.1811 6.2214 22.1811 6.68807 22.6513L11.0436 27.1189L12.9881 25.3162C13.4547 24.9243 14.1547 24.9243 14.5436 25.3162L17.0325 27.6676C17.2658 27.9027 17.2658 28.2946 17.0325 28.5297C16.9547 28.6865 16.7992 28.6865 16.6436 28.6865Z" fill="#4A4A4A"/>
<path d="M17.2667 29C17.0334 29 16.7222 28.9216 16.5667 28.6865C16.3334 28.4513 16.2556 28.0595 16.4111 27.7459V27.6676L18.5889 23.9838C18.5889 23.6703 18.6667 23.3568 18.9 23.1216L21.7 19.7513C21.9334 19.5162 22.2445 19.3595 22.5556 19.2811C22.6334 18.9676 22.7889 18.6541 23.1 18.4189L41.6111 2.19459C41.6889 2.11621 41.8445 2.03783 41.9222 1.95945L43.1667 0.862158C43.8667 0.235131 44.8 -0.0783829 45.7334 -4.48525e-06C46.6667 0.0783739 47.5222 0.548644 48.1445 1.25405C49.3889 2.74324 49.2334 5.01621 47.7556 6.34864L46.5111 7.44594C46.4334 7.52432 46.3556 7.6027 46.2778 7.75945L27.6889 23.7486C27.4556 23.9838 27.0667 24.1405 26.7556 24.1405C26.6778 24.4541 26.4445 24.6892 26.1334 24.9243L22.4 27.1973C22.0889 27.3541 21.7778 27.4324 21.4667 27.3541L17.5 29C17.4222 29 17.3445 29 17.2667 29ZM19.2111 25.1595L17.8111 27.5892L21.0778 26.2568L21.1556 26.4919L21.5445 26.1784C21.6222 26.2568 21.7 26.2568 21.7 26.1784L25.4334 23.9054C25.5111 23.9054 25.5111 23.827 25.5111 23.827C25.5111 23.827 25.5111 23.7486 25.5111 23.6703L25.4334 23.5919L26.2889 22.8081C26.3667 22.8865 26.4445 22.9649 26.5222 22.9649C26.6 22.9649 26.6778 22.9649 26.7556 22.8865L45.5 6.74054C45.6556 6.58378 45.6556 6.34864 45.5778 6.19189L46.4334 5.4081L46.6667 5.72162L46.9778 5.4081C47.9889 4.54594 48.0667 2.97837 47.2111 1.95945C46.8222 1.48918 46.2 1.17567 45.5778 1.09729C44.9556 1.01891 44.3334 1.25405 43.8667 1.64594L43.5556 2.03783L45.3445 4.15405L44.4889 4.93783L42.9334 3.13513C42.8556 3.05675 42.7778 2.97837 42.7 2.97837C42.6222 2.97837 42.5445 2.97837 42.4667 3.05675L23.8 19.1243C23.6445 19.2811 23.6445 19.5162 23.7222 19.673L25.0445 21.2405L24.1889 22.0243L22.7889 20.3784C22.7889 20.3 22.7111 20.3 22.7111 20.3C22.7111 20.3 22.6334 20.3 22.6334 20.3784L19.8334 23.7486C19.7556 23.827 19.7556 23.9054 19.8334 23.9054L21.3111 25.6297L20.4556 26.4135L19.2111 25.1595Z" fill="#D22D2D"/>
</g>
<defs>
<clipPath id="clip0_272:1840">
<rect width="49" height="29" fill="white"/>
</clipPath>
</defs>
</svg>
